M48
;Layer_Color=9474304
;FILE_FORMAT=4:3
METRIC
;TYPE=PLATED
T1F00S00C0.711
T2F00S00C0.900
%
T01
X0011500Y0006000
X0011490Y0007635
X0012000Y0010750
X0014875Y0010875
X0041500Y0003000
T02
X0001320Y0002000
X0003860
X0006400
X0008940
X0011480
X0014020
X0016560
X0019100
X0026720
X0019100Y0014500
X0016560
X0014020
X0011480
X0008940
X0006400
X0003860
X0001320
X0003250Y0009915
Y0007375
X0005790
Y0009915
X0008330
Y0007375
X0033085Y0006375
X0035625
Y0008915
X0033085
Y0011455
X0035625
X0036880Y0002000
X0034340
X0031800
X0029260
X0039420
M30
