G04 Layer_Color=32896*
%FSLAX44Y44*%
%MOMM*%
G71*
G01*
G75*
%ADD14C,0.2500*%
%ADD20C,0.1270*%
%ADD21C,0.2000*%
G36*
X61000Y65000D02*
X51000Y75000D01*
X61000D01*
Y65000D01*
D02*
G37*
G36*
X72968Y130669D02*
D01*
Y130669D01*
Y130669D01*
D02*
G37*
G36*
X77320Y145160D02*
X78088Y144990D01*
X79834Y144277D01*
X80465Y143890D01*
X80465Y143890D01*
X84235Y146938D01*
X86820Y144398D01*
X83746Y140588D01*
X84164Y139936D01*
X84880Y138237D01*
X85049Y137540D01*
X89888Y137032D01*
Y133172D01*
X85049Y132680D01*
X84877Y131934D01*
X84152Y130185D01*
X83746Y129535D01*
X86820Y125765D01*
X84235Y123180D01*
X80465Y126254D01*
X79815Y125848D01*
X79259Y125601D01*
X78947Y125472D01*
X76794Y130669D01*
X77221Y130846D01*
X78380Y131620D01*
X79416Y133171D01*
X79688Y134538D01*
X79688Y135000D01*
X79696Y135493D01*
X79410Y136954D01*
X78347Y138544D01*
X76757Y139607D01*
X74882Y139979D01*
X73006Y139607D01*
X71416Y138544D01*
X70354Y136954D01*
X69981Y135078D01*
X70354Y133203D01*
X72110Y131041D01*
X72968Y130669D01*
X70936Y125472D01*
X69991Y125862D01*
X69485Y126208D01*
X69412Y126254D01*
X65602Y123180D01*
X63062Y125765D01*
X66110Y129535D01*
X65723Y130166D01*
X65010Y131912D01*
X64840Y132680D01*
X64840D01*
X60014Y133172D01*
Y137032D01*
X64840Y137540D01*
X65007Y138258D01*
X65712Y139954D01*
X66110Y140588D01*
X66110D01*
X63062Y144398D01*
X65602Y146938D01*
X69412Y143890D01*
X70046Y144288D01*
X71741Y144993D01*
X72460Y145160D01*
Y145160D01*
X72968Y149986D01*
X76828D01*
X77320Y145160D01*
D02*
G37*
%LPC*%
G36*
X83746Y129535D02*
Y129535D01*
Y129535D01*
D01*
D02*
G37*
%LPD*%
D14*
X73250Y77000D02*
G03*
X73250Y77000I-1250J0D01*
G01*
D20*
X61000Y25000D02*
Y75000D01*
X29000Y25000D02*
Y75000D01*
X61000D01*
X29000Y25000D02*
X61000D01*
D21*
X147500Y5000D02*
Y9998D01*
X145001Y12498D01*
X142502Y9998D01*
Y5000D01*
Y8749D01*
X147500D01*
X140002Y9998D02*
Y6250D01*
X138753Y5000D01*
X135004D01*
Y9998D01*
X132505Y5000D02*
X128756D01*
X127506Y6250D01*
X128756Y7499D01*
X131255D01*
X132505Y8749D01*
X131255Y9998D01*
X127506D01*
X125007Y11248D02*
X123758Y12498D01*
X121258D01*
X120009Y11248D01*
Y9998D01*
X121258Y8749D01*
X122508D01*
X121258D01*
X120009Y7499D01*
Y6250D01*
X121258Y5000D01*
X123758D01*
X125007Y6250D01*
X117510Y12498D02*
Y5000D01*
X113761D01*
X112511Y6250D01*
Y11248D01*
X113761Y12498D01*
X117510D01*
X102514Y5000D02*
Y12498D01*
X98766D01*
X97516Y11248D01*
Y8749D01*
X98766Y7499D01*
X102514D01*
X100015D02*
X97516Y5000D01*
X95017D02*
Y9998D01*
X92518Y12498D01*
X90018Y9998D01*
Y5000D01*
Y8749D01*
X95017D01*
X87519Y5000D02*
Y12498D01*
X85020Y9998D01*
X82521Y12498D01*
Y5000D01*
X80022D02*
Y12498D01*
X76273D01*
X75023Y11248D01*
Y8749D01*
X76273Y7499D01*
X80022D01*
X67526Y11248D02*
X68775Y12498D01*
X71274D01*
X72524Y11248D01*
Y9998D01*
X71274Y8749D01*
X68775D01*
X67526Y7499D01*
Y6250D01*
X68775Y5000D01*
X71274D01*
X72524Y6250D01*
X57529Y12498D02*
X52530D01*
X55030D01*
Y5000D01*
X50031D02*
X47532D01*
X48782D01*
Y9998D01*
X50031D01*
X43783Y5000D02*
Y9998D01*
X40034D01*
X38785Y8749D01*
Y5000D01*
X36286Y9998D02*
Y6250D01*
X35036Y5000D01*
X31287D01*
Y3750D01*
X32537Y2501D01*
X33786D01*
X31287Y5000D02*
Y9998D01*
X23790Y12498D02*
X28788D01*
Y8749D01*
X26289D01*
X28788D01*
Y5000D01*
X20041Y9998D02*
X17542D01*
X16292Y8749D01*
Y5000D01*
X20041D01*
X21291Y6250D01*
X20041Y7499D01*
X16292D01*
X13793Y5000D02*
Y9998D01*
X10044D01*
X8795Y8749D01*
Y5000D01*
M02*
