G04 Layer_Color=65535*
%FSLAX43Y43*%
%MOMM*%
G71*
G01*
G75*
%ADD15C,0.254*%
%ADD23C,0.250*%
%ADD24C,0.600*%
%ADD25C,0.200*%
%ADD26C,0.127*%
%ADD27C,0.150*%
G36*
X23918Y4539D02*
X23942Y4536D01*
X23967Y4531D01*
X23968D01*
X23973Y4529D01*
X23980Y4528D01*
X23988Y4524D01*
X24010Y4518D01*
X24035Y4508D01*
X24037D01*
X24042Y4504D01*
X24050Y4503D01*
X24060Y4498D01*
X24072Y4494D01*
X24083Y4489D01*
X24112Y4478D01*
X24113D01*
X24118Y4476D01*
X24125Y4473D01*
X24133Y4469D01*
X24157Y4464D01*
X24182Y4463D01*
X24188D01*
X24195Y4464D01*
X24205D01*
X24227Y4471D01*
X24238Y4476D01*
X24248Y4483D01*
X24250Y4484D01*
X24253Y4486D01*
X24258Y4491D01*
X24263Y4496D01*
X24280Y4514D01*
X24295Y4536D01*
X24377Y4478D01*
Y4476D01*
X24375Y4473D01*
X24372Y4468D01*
X24368Y4461D01*
X24358Y4446D01*
X24347Y4429D01*
X24345Y4428D01*
X24343Y4426D01*
X24333Y4416D01*
X24320Y4404D01*
X24302Y4391D01*
X24300D01*
X24297Y4388D01*
X24292Y4386D01*
X24285Y4381D01*
X24268Y4373D01*
X24248Y4366D01*
X24247D01*
X24243Y4364D01*
X24237Y4363D01*
X24228Y4361D01*
X24208Y4358D01*
X24185Y4356D01*
X24170D01*
X24160Y4358D01*
X24148Y4359D01*
X24135Y4361D01*
X24105Y4369D01*
X24103D01*
X24098Y4371D01*
X24090Y4374D01*
X24080Y4378D01*
X24068Y4383D01*
X24055Y4388D01*
X24028Y4398D01*
X24027D01*
X24023Y4399D01*
X24017Y4403D01*
X24007Y4406D01*
X23987Y4414D01*
X23962Y4423D01*
X23960D01*
X23957Y4424D01*
X23950Y4426D01*
X23942Y4428D01*
X23922Y4433D01*
X23900Y4434D01*
X23893D01*
X23887Y4433D01*
X23877D01*
X23855Y4426D01*
X23843Y4423D01*
X23833Y4416D01*
X23832Y4414D01*
X23828Y4413D01*
X23823Y4408D01*
X23817Y4401D01*
X23802Y4384D01*
X23787Y4361D01*
X23705Y4421D01*
Y4423D01*
X23707Y4426D01*
X23710Y4429D01*
X23713Y4436D01*
X23723Y4453D01*
X23737Y4469D01*
Y4471D01*
X23740Y4473D01*
X23748Y4483D01*
X23763Y4494D01*
X23780Y4508D01*
X23782D01*
X23783Y4509D01*
X23788Y4513D01*
X23795Y4516D01*
X23812Y4524D01*
X23833Y4533D01*
X23835D01*
X23838Y4534D01*
X23845Y4536D01*
X23852D01*
X23873Y4539D01*
X23897Y4541D01*
X23910D01*
X23918Y4539D01*
D02*
G37*
G36*
X21481Y4539D02*
X21504Y4536D01*
X21529Y4531D01*
X21531D01*
X21536Y4529D01*
X21543Y4528D01*
X21551Y4524D01*
X21573Y4518D01*
X21598Y4508D01*
X21599D01*
X21604Y4504D01*
X21613Y4503D01*
X21623Y4498D01*
X21634Y4494D01*
X21646Y4489D01*
X21674Y4478D01*
X21676D01*
X21681Y4476D01*
X21688Y4473D01*
X21696Y4469D01*
X21719Y4464D01*
X21744Y4463D01*
X21751D01*
X21758Y4464D01*
X21768D01*
X21789Y4471D01*
X21801Y4476D01*
X21811Y4483D01*
X21813Y4484D01*
X21816Y4486D01*
X21821Y4491D01*
X21826Y4496D01*
X21843Y4514D01*
X21858Y4536D01*
X21939Y4478D01*
Y4476D01*
X21938Y4473D01*
X21934Y4468D01*
X21931Y4461D01*
X21921Y4446D01*
X21909Y4429D01*
X21908Y4428D01*
X21906Y4426D01*
X21896Y4416D01*
X21883Y4404D01*
X21864Y4391D01*
X21863D01*
X21859Y4388D01*
X21854Y4386D01*
X21848Y4381D01*
X21831Y4373D01*
X21811Y4366D01*
X21809D01*
X21806Y4364D01*
X21799Y4363D01*
X21791Y4361D01*
X21771Y4358D01*
X21748Y4356D01*
X21733D01*
X21723Y4358D01*
X21711Y4359D01*
X21698Y4361D01*
X21668Y4369D01*
X21666D01*
X21661Y4371D01*
X21653Y4374D01*
X21643Y4378D01*
X21631Y4383D01*
X21618Y4388D01*
X21591Y4398D01*
X21589D01*
X21586Y4399D01*
X21579Y4403D01*
X21569Y4406D01*
X21549Y4414D01*
X21524Y4423D01*
X21523D01*
X21519Y4424D01*
X21513Y4426D01*
X21504Y4428D01*
X21484Y4433D01*
X21463Y4434D01*
X21456D01*
X21449Y4433D01*
X21439D01*
X21418Y4426D01*
X21406Y4423D01*
X21396Y4416D01*
X21394Y4414D01*
X21391Y4413D01*
X21386Y4408D01*
X21379Y4401D01*
X21364Y4384D01*
X21349Y4361D01*
X21268Y4421D01*
Y4423D01*
X21269Y4426D01*
X21273Y4429D01*
X21276Y4436D01*
X21286Y4453D01*
X21299Y4469D01*
Y4471D01*
X21303Y4473D01*
X21311Y4483D01*
X21326Y4494D01*
X21343Y4508D01*
X21344D01*
X21346Y4509D01*
X21351Y4513D01*
X21358Y4516D01*
X21374Y4524D01*
X21396Y4533D01*
X21398D01*
X21401Y4534D01*
X21408Y4536D01*
X21414D01*
X21436Y4539D01*
X21459Y4541D01*
X21473D01*
X21481Y4539D01*
D02*
G37*
G36*
X22750Y6900D02*
X21750D01*
Y7900D01*
X22750Y6900D01*
D02*
G37*
G36*
X17250D02*
X16250D01*
Y7900D01*
X17250Y6900D01*
D02*
G37*
D15*
X2671Y10875D02*
G03*
X2671Y10875I-1171J0D01*
G01*
X42500Y8700D02*
Y12625D01*
X32375D02*
X42500D01*
X32375Y8705D02*
Y12625D01*
X30500Y750D02*
Y3250D01*
X35625Y750D02*
Y3250D01*
X37500Y3625D02*
X37500Y12625D01*
X35000Y3625D02*
Y12625D01*
X40000Y3625D02*
X40000Y12625D01*
D23*
X16175Y5800D02*
G03*
X16175Y5800I-125J0D01*
G01*
X7350Y10505D02*
G03*
X7350Y10505I-125J0D01*
G01*
X21675Y5800D02*
G03*
X21675Y5800I-125J0D01*
G01*
D24*
X10025Y9450D02*
G03*
X10025Y9450I-300J0D01*
G01*
D25*
X20315Y730D02*
X25395D01*
Y3270D01*
X20315D02*
X25395D01*
X20315Y730D02*
Y3270D01*
X50Y13230D02*
Y15770D01*
X20370D01*
Y13230D02*
Y15770D01*
X50Y13230D02*
X20370D01*
X8725Y5050D02*
Y10450D01*
X12525Y5050D02*
Y10450D01*
X8725D02*
X12525D01*
X8725Y5050D02*
X12525D01*
X50Y730D02*
Y3270D01*
X20370D01*
Y730D02*
Y3270D01*
X50Y730D02*
X20370D01*
X42515Y3605D02*
Y8685D01*
X32355Y3605D02*
Y8685D01*
X42515D01*
X32355Y3605D02*
X42515D01*
X25450Y730D02*
X40690D01*
X25450Y3270D02*
X40690D01*
X25450Y730D02*
Y3270D01*
X40690Y730D02*
Y3270D01*
D26*
X12550Y10875D02*
Y11875D01*
X11750Y10875D02*
X12550D01*
X10450D02*
X11250D01*
X10450D02*
Y11875D01*
X11250D01*
X11750D02*
X12550D01*
X21250Y6900D02*
Y10100D01*
X16250Y6900D02*
Y10100D01*
X21250D01*
X16250Y6900D02*
X21250D01*
X33275Y12300D02*
X33975D01*
X32950Y9075D02*
Y10175D01*
X34300Y9075D02*
Y10175D01*
X32950Y9075D02*
X34300D01*
X32950Y11075D02*
Y11975D01*
X34300Y11075D02*
Y11975D01*
X34100Y12175D02*
X34300Y11975D01*
X33975Y12300D02*
X34125Y12150D01*
X33100Y12125D02*
X33275Y12300D01*
X33150Y12175D02*
X34100D01*
X32950Y11975D02*
X33150Y12175D01*
X35900Y12300D02*
X36600D01*
X35575Y9075D02*
Y10175D01*
X36925Y9075D02*
Y10175D01*
X35575Y9075D02*
X36925D01*
X35575Y11075D02*
Y11975D01*
X36925Y11075D02*
Y11975D01*
X36725Y12175D02*
X36925Y11975D01*
X36600Y12300D02*
X36750Y12150D01*
X35725Y12125D02*
X35900Y12300D01*
X35775Y12175D02*
X36725D01*
X35575Y11975D02*
X35775Y12175D01*
X29406Y10223D02*
Y10527D01*
X28594Y10223D02*
Y10527D01*
X31031Y10223D02*
Y10527D01*
X30219Y10223D02*
Y10527D01*
X21750Y6900D02*
X26750D01*
X21750Y10100D02*
X26750D01*
X21750Y6900D02*
Y10100D01*
X26750Y6900D02*
Y10100D01*
X38075Y11975D02*
X38275Y12175D01*
X39225D01*
X38225Y12125D02*
X38400Y12300D01*
X39100D02*
X39250Y12150D01*
X39225Y12175D02*
X39425Y11975D01*
Y11075D02*
Y11975D01*
X38075Y11075D02*
Y11975D01*
Y9075D02*
X39425D01*
Y10175D01*
X38075Y9075D02*
Y10175D01*
X38400Y12300D02*
X39100D01*
X40450Y11975D02*
X40650Y12175D01*
X41600D01*
X40600Y12125D02*
X40775Y12300D01*
X41475D02*
X41625Y12150D01*
X41600Y12175D02*
X41800Y11975D01*
Y11075D02*
Y11975D01*
X40450Y11075D02*
Y11975D01*
Y9075D02*
X41800D01*
Y10175D01*
X40450Y9075D02*
Y10175D01*
X40775Y12300D02*
X41475D01*
X29406Y6473D02*
Y6777D01*
X28594Y6473D02*
Y6777D01*
X31031Y6473D02*
Y6777D01*
X30219Y6473D02*
Y6777D01*
D27*
X41237Y10312D02*
Y10912D01*
X40938Y10612D01*
X41337D01*
X38562Y10812D02*
X38662Y10912D01*
X38862D01*
X38962Y10812D01*
Y10712D01*
X38862Y10612D01*
X38762D01*
X38862D01*
X38962Y10512D01*
Y10412D01*
X38862Y10312D01*
X38662D01*
X38562Y10412D01*
X36462Y10312D02*
X36062D01*
X36462Y10712D01*
Y10812D01*
X36362Y10912D01*
X36162D01*
X36062Y10812D01*
X33562Y10375D02*
X33762D01*
X33662D01*
Y10975D01*
X33562Y10875D01*
X29125Y4475D02*
Y4075D01*
X29325Y3875D01*
X29525Y4075D01*
Y4475D01*
X30125Y4375D02*
X30025Y4475D01*
X29825D01*
X29725Y4375D01*
Y3975D01*
X29825Y3875D01*
X30025D01*
X30125Y3975D01*
X30724Y4375D02*
X30625Y4475D01*
X30425D01*
X30325Y4375D01*
Y3975D01*
X30425Y3875D01*
X30625D01*
X30724Y3975D01*
X9900Y11625D02*
X9800Y11725D01*
X9600D01*
X9500Y11625D01*
Y11225D01*
X9600Y11125D01*
X9800D01*
X9900Y11225D01*
X10100Y11125D02*
X10300D01*
X10200D01*
Y11725D01*
X10100Y11625D01*
X16775Y12350D02*
Y12750D01*
X16675Y12850D01*
X16475D01*
X16375Y12750D01*
Y12350D01*
X16475Y12250D01*
X16675D01*
X16575Y12450D02*
X16775Y12250D01*
X16675D02*
X16775Y12350D01*
X16975Y12250D02*
X17175D01*
X17075D01*
Y12850D01*
X16975Y12750D01*
X7625Y11225D02*
Y10725D01*
X7725Y10625D01*
X7925D01*
X8025Y10725D01*
Y11225D01*
X8225Y10625D02*
X8425D01*
X8325D01*
Y11225D01*
X8225Y11125D01*
X28625Y11875D02*
Y12475D01*
X28925D01*
X29025Y12375D01*
Y12175D01*
X28925Y12075D01*
X28625D01*
X28825D02*
X29025Y11875D01*
X29225D02*
X29425D01*
X29325D01*
Y12475D01*
X29225Y12375D01*
X30125Y11875D02*
Y12475D01*
X30425D01*
X30525Y12375D01*
Y12175D01*
X30425Y12075D01*
X30125D01*
X30325D02*
X30525Y11875D01*
X31125D02*
X30725D01*
X31125Y12275D01*
Y12375D01*
X31025Y12475D01*
X30825D01*
X30725Y12375D01*
X22275Y12350D02*
Y12750D01*
X22175Y12850D01*
X21975D01*
X21875Y12750D01*
Y12350D01*
X21975Y12250D01*
X22175D01*
X22075Y12450D02*
X22275Y12250D01*
X22175D02*
X22275Y12350D01*
X22875Y12250D02*
X22475D01*
X22875Y12650D01*
Y12750D01*
X22775Y12850D01*
X22575D01*
X22475Y12750D01*
X28625Y8125D02*
Y8725D01*
X28925D01*
X29025Y8625D01*
Y8425D01*
X28925Y8325D01*
X28625D01*
X28825D02*
X29025Y8125D01*
X29225Y8625D02*
X29325Y8725D01*
X29525D01*
X29625Y8625D01*
Y8525D01*
X29525Y8425D01*
X29425D01*
X29525D01*
X29625Y8325D01*
Y8225D01*
X29525Y8125D01*
X29325D01*
X29225Y8225D01*
X30250Y8125D02*
Y8725D01*
X30550D01*
X30650Y8625D01*
Y8425D01*
X30550Y8325D01*
X30250D01*
X30450D02*
X30650Y8125D01*
X31150D02*
Y8725D01*
X30850Y8425D01*
X31250D01*
X27625Y1475D02*
X28025D01*
X27825D01*
Y875D01*
X28225Y1375D02*
X28325Y1475D01*
X28525D01*
X28625Y1375D01*
Y975D01*
X28525Y875D01*
X28325D01*
X28225Y975D01*
Y1375D01*
X31625Y7125D02*
Y7791D01*
X38417Y5750D02*
X38250Y5917D01*
Y6250D01*
X38417Y6416D01*
X38584D01*
X38750Y6250D01*
Y6083D01*
Y6250D01*
X38917Y6416D01*
X39083D01*
X39250Y6250D01*
Y5917D01*
X39083Y5750D01*
X36750Y6416D02*
Y5750D01*
X36084Y6416D01*
X35917D01*
X35750Y6250D01*
Y5917D01*
X35917Y5750D01*
X34125Y6000D02*
Y6333D01*
Y6167D01*
X33125D01*
X33292Y6000D01*
X41750Y6250D02*
X40750D01*
X41250Y5750D01*
Y6416D01*
X31625Y4625D02*
Y5291D01*
X31292Y4958D02*
X31958D01*
X32625Y1475D02*
X33025D01*
X32825D01*
Y875D01*
X33225D02*
X33425D01*
X33325D01*
Y1475D01*
X33225Y1375D01*
X37625Y1475D02*
X38025D01*
X37825D01*
Y875D01*
X38625D02*
X38225D01*
X38625Y1275D01*
Y1375D01*
X38525Y1475D01*
X38325D01*
X38225Y1375D01*
X21500Y3562D02*
X21700D01*
X21600D01*
Y4162D01*
X21500Y4062D01*
X24275Y3562D02*
X23875D01*
X24275Y3962D01*
Y4062D01*
X24175Y4162D01*
X23975D01*
X23875Y4062D01*
M02*
