G04 Layer_Physical_Order=1*
G04 Layer_Color=255*
%FSLAX43Y43*%
%MOMM*%
G71*
G01*
G75*
G04:AMPARAMS|DCode=10|XSize=1mm|YSize=0.9mm|CornerRadius=0.113mm|HoleSize=0mm|Usage=FLASHONLY|Rotation=0.000|XOffset=0mm|YOffset=0mm|HoleType=Round|Shape=RoundedRectangle|*
%AMROUNDEDRECTD10*
21,1,1.000,0.675,0,0,0.0*
21,1,0.775,0.900,0,0,0.0*
1,1,0.225,0.388,-0.338*
1,1,0.225,-0.388,-0.338*
1,1,0.225,-0.388,0.338*
1,1,0.225,0.388,0.338*
%
%ADD10ROUNDEDRECTD10*%
G04:AMPARAMS|DCode=11|XSize=0.8mm|YSize=0.8mm|CornerRadius=0.1mm|HoleSize=0mm|Usage=FLASHONLY|Rotation=90.000|XOffset=0mm|YOffset=0mm|HoleType=Round|Shape=RoundedRectangle|*
%AMROUNDEDRECTD11*
21,1,0.800,0.600,0,0,90.0*
21,1,0.600,0.800,0,0,90.0*
1,1,0.200,0.300,0.300*
1,1,0.200,0.300,-0.300*
1,1,0.200,-0.300,-0.300*
1,1,0.200,-0.300,0.300*
%
%ADD11ROUNDEDRECTD11*%
%ADD12O,1.600X0.600*%
%ADD13O,2.200X0.600*%
G04:AMPARAMS|DCode=14|XSize=0.5mm|YSize=0.6mm|CornerRadius=0.05mm|HoleSize=0mm|Usage=FLASHONLY|Rotation=90.000|XOffset=0mm|YOffset=0mm|HoleType=Round|Shape=RoundedRectangle|*
%AMROUNDEDRECTD14*
21,1,0.500,0.500,0,0,90.0*
21,1,0.400,0.600,0,0,90.0*
1,1,0.100,0.250,0.200*
1,1,0.100,0.250,-0.200*
1,1,0.100,-0.250,-0.200*
1,1,0.100,-0.250,0.200*
%
%ADD14ROUNDEDRECTD14*%
%ADD15C,0.500*%
%ADD16C,0.250*%
%ADD17R,1.500X1.500*%
%ADD18C,1.500*%
%ADD19R,1.500X1.500*%
%ADD20C,1.270*%
D10*
X39000Y11225D02*
D03*
Y9525D02*
D03*
X39250Y7350D02*
D03*
Y5650D02*
D03*
D11*
X40750Y11225D02*
D03*
Y9525D02*
D03*
Y7350D02*
D03*
Y5650D02*
D03*
D12*
X30450Y7845D02*
D03*
Y9115D02*
D03*
Y10385D02*
D03*
Y11655D02*
D03*
X25050Y7845D02*
D03*
Y9115D02*
D03*
Y10385D02*
D03*
Y11655D02*
D03*
D13*
X14350Y8905D02*
D03*
Y7635D02*
D03*
Y6365D02*
D03*
Y5095D02*
D03*
X21150Y8905D02*
D03*
Y7635D02*
D03*
Y6365D02*
D03*
Y5095D02*
D03*
D14*
X18500Y11250D02*
D03*
X17500D02*
D03*
D15*
X37875Y750D02*
X38130Y1005D01*
X5500Y750D02*
X37875D01*
X4939Y1311D02*
X5500Y750D01*
X29030Y11655D02*
X30450D01*
X27875Y10500D02*
X29030Y11655D01*
X29710Y9125D02*
X32625D01*
X25720Y11655D02*
X26750Y10625D01*
X41325Y8575D02*
X41750Y9000D01*
Y10225D01*
X40750Y11225D02*
X41750Y10225D01*
X35625Y8915D02*
X37190Y7350D01*
X33085Y8915D02*
Y11455D01*
X29039Y6375D02*
X33085D01*
X33035Y8865D02*
X33085Y8915D01*
X38130Y1005D02*
Y3250D01*
X37375Y4005D02*
X38130Y3250D01*
X12000Y12125D02*
X17853D01*
X9302D02*
X12000D01*
Y10750D02*
Y12125D01*
X1320Y12070D02*
Y14500D01*
X750Y11500D02*
X1320Y12070D01*
X750Y5500D02*
Y11500D01*
Y5500D02*
X3171Y3079D01*
X18300Y11602D02*
X18653Y11250D01*
X4040Y9915D02*
Y11412D01*
X18300Y11602D02*
Y11678D01*
X17853Y12125D02*
X18300Y11678D01*
X9262Y12165D02*
X9302Y12125D01*
X4793Y12165D02*
X9262D01*
X4040Y11412D02*
X4793Y12165D01*
X3250Y9915D02*
X4040D01*
X14350Y5095D02*
X14820Y5565D01*
X15691D01*
X17500Y7374D01*
Y11250D01*
X18653D02*
X18805D01*
X21150Y8905D01*
X14875Y10875D02*
X15250Y11250D01*
X17500D01*
X4939Y1311D02*
X5110Y1482D01*
Y2518D01*
X4378Y3250D02*
X5110Y2518D01*
X3342Y3250D02*
X4378D01*
X3171Y3079D02*
X3342Y3250D01*
X31605Y7845D02*
X32625Y8865D01*
X37375Y4005D02*
Y4625D01*
X35625Y6375D02*
X36375Y5625D01*
X37190Y7350D02*
X39250D01*
X35855Y11225D02*
X39000D01*
X35625Y11455D02*
X35855Y11225D01*
X37733Y8575D02*
X41325D01*
X36143Y10165D02*
X37733Y8575D01*
X34375Y10165D02*
X36143D01*
X33085Y11455D02*
X34375Y10165D01*
X40750Y7099D02*
Y7350D01*
X35625Y6375D02*
X37375Y4625D01*
X25000Y9125D02*
X25875D01*
X26750Y8250D01*
Y10625D01*
X27875Y7539D02*
Y10500D01*
Y7539D02*
X29039Y6375D01*
X26720Y2000D02*
Y8220D01*
X26750Y8250D01*
X27875Y9375D02*
X28885Y10385D01*
X30450D01*
Y7845D02*
X31605D01*
X41500Y3000D02*
Y3600D01*
X41875Y3975D01*
Y5974D01*
X40750Y7099D02*
X41875Y5974D01*
D16*
X23622Y9497D02*
X24260Y10135D01*
X23622Y8895D02*
Y9497D01*
X39250Y5650D02*
X40750D01*
X39000Y9525D02*
X40750D01*
X1625Y10588D02*
X4412Y13375D01*
X1625Y9242D02*
X3371Y7496D01*
X2125Y10381D02*
X4619Y12875D01*
X2125Y9449D02*
X2784Y8790D01*
X1625Y9242D02*
Y10588D01*
X2125Y9449D02*
Y10381D01*
X11500Y6000D02*
X11500Y6000D01*
X11865Y6365D01*
X14350D01*
X8796Y11040D02*
X9500Y10336D01*
Y5625D02*
Y10336D01*
Y5625D02*
X11375Y3750D01*
X19805D01*
X11490Y7635D02*
X14350D01*
X19805Y3750D02*
X21150Y5095D01*
X18935Y12875D02*
X22625Y9185D01*
X4619Y12875D02*
X18935D01*
X4412Y13375D02*
X19142D01*
X23622Y8895D01*
X9003Y11540D02*
X11638Y8905D01*
X7657Y11540D02*
X9003D01*
X7367Y11250D02*
X7657Y11540D01*
X7864Y11040D02*
X8796D01*
X6739Y9915D02*
X7864Y11040D01*
X5534Y11250D02*
X7367D01*
X4665Y10381D02*
X5534Y11250D01*
X23250Y8520D02*
X23625Y8895D01*
X2784Y8790D02*
X4375D01*
X5324D02*
X6915D01*
X8330Y7375D01*
X4375Y8790D02*
X5790Y7375D01*
X21150Y7635D02*
X22551D01*
X22625Y7709D01*
Y9185D01*
X5790Y7375D02*
X6050Y7635D01*
X11638Y8905D02*
X14350D01*
X4665Y9449D02*
Y10381D01*
Y9449D02*
X5324Y8790D01*
X5790Y9915D02*
X6739D01*
X22550Y5095D02*
X25050Y7595D01*
X21150Y5095D02*
X22550D01*
X23250Y7125D02*
Y8520D01*
X22490Y6365D02*
X23250Y7125D01*
X21150Y6365D02*
X22490D01*
D17*
X19100Y2000D02*
D03*
X26720D02*
D03*
X3250Y7375D02*
D03*
X19100Y14500D02*
D03*
D18*
X16560Y2000D02*
D03*
X14020D02*
D03*
X11480D02*
D03*
X8940D02*
D03*
X6400D02*
D03*
X3860D02*
D03*
X1320D02*
D03*
X33085Y6375D02*
D03*
X35625Y8915D02*
D03*
X33085D02*
D03*
X35625Y11455D02*
D03*
X33085D02*
D03*
X29260Y2000D02*
D03*
X31800D02*
D03*
X34340D02*
D03*
X36880D02*
D03*
X39420D02*
D03*
X3250Y9915D02*
D03*
X5790Y7375D02*
D03*
Y9915D02*
D03*
X8330Y7375D02*
D03*
Y9915D02*
D03*
X16560Y14500D02*
D03*
X14020D02*
D03*
X11480D02*
D03*
X8940D02*
D03*
X6400D02*
D03*
X3860D02*
D03*
X1320D02*
D03*
D19*
X35625Y6375D02*
D03*
D20*
X12000Y10750D02*
D03*
X11500Y6000D02*
D03*
X11490Y7635D02*
D03*
X14875Y10875D02*
D03*
X41500Y3000D02*
D03*
M02*
