G04 Layer_Color=65535*
%FSLAX43Y43*%
%MOMM*%
G71*
G01*
G75*
%ADD16C,0.250*%
%ADD21C,0.600*%
%ADD22C,0.254*%
%ADD23C,0.127*%
%ADD24C,0.200*%
%ADD25C,0.150*%
G36*
X26150Y11250D02*
Y12250D01*
X27150D01*
X26150Y11250D01*
D02*
G37*
D16*
X25175Y12450D02*
G03*
X25175Y12450I-125J0D01*
G01*
X14475Y9755D02*
G03*
X14475Y9755I-125J0D01*
G01*
D21*
X17150Y8700D02*
G03*
X17150Y8700I-300J0D01*
G01*
D22*
X32000Y10125D02*
X36915D01*
X31875Y7625D02*
X36790D01*
X35625Y750D02*
Y3250D01*
X30500Y750D02*
Y3250D01*
D23*
X39406Y10223D02*
Y10527D01*
X38594Y10223D02*
Y10527D01*
X39656Y6348D02*
Y6652D01*
X38844Y6348D02*
Y6652D01*
X40400Y12050D02*
X41100D01*
X40075Y8825D02*
Y9925D01*
X41425Y8825D02*
Y9925D01*
X40075Y8825D02*
X41425D01*
X40075Y10825D02*
Y11725D01*
X41425Y10825D02*
Y11725D01*
X41225Y11925D02*
X41425Y11725D01*
X41100Y12050D02*
X41250Y11900D01*
X40225Y11875D02*
X40400Y12050D01*
X40275Y11925D02*
X41225D01*
X40075Y11725D02*
X40275Y11925D01*
X40400Y8175D02*
X41100D01*
X40075Y4950D02*
Y6050D01*
X41425Y4950D02*
Y6050D01*
X40075Y4950D02*
X41425D01*
X40075Y6950D02*
Y7850D01*
X41425Y6950D02*
Y7850D01*
X41225Y8050D02*
X41425Y7850D01*
X41100Y8175D02*
X41250Y8025D01*
X40225Y8000D02*
X40400Y8175D01*
X40275Y8050D02*
X41225D01*
X40075Y7850D02*
X40275Y8050D01*
X26150Y7250D02*
X29350D01*
X26150Y12250D02*
X29350D01*
Y7250D02*
Y12250D01*
X26150Y7250D02*
Y12250D01*
X19050Y10750D02*
Y11750D01*
X18250Y10750D02*
X19050D01*
X16950D02*
X17750D01*
X16950D02*
Y11750D01*
X17750D01*
X18250D02*
X19050D01*
D24*
X50Y730D02*
Y3270D01*
X20370D01*
Y730D02*
Y3270D01*
X50Y730D02*
X20370D01*
X31815Y12725D02*
X36895D01*
X31815Y5105D02*
X36895D01*
X31815D02*
Y12725D01*
X36895Y5105D02*
Y12725D01*
Y7857D02*
Y12725D01*
X15850Y4300D02*
Y9700D01*
X19650Y4300D02*
Y9700D01*
X15850D02*
X19650D01*
X15850Y4300D02*
X19650D01*
X40690Y730D02*
Y3270D01*
X25450Y730D02*
Y3270D01*
X40690D01*
X25450Y730D02*
X40690D01*
X9600Y6105D02*
Y11185D01*
X1980Y6105D02*
Y11185D01*
X9600D01*
X1980Y6105D02*
X9600D01*
X4732D02*
X9600D01*
X50Y13230D02*
Y15770D01*
X20370D01*
Y13230D02*
Y15770D01*
X50Y13230D02*
X20370D01*
D25*
X38750Y8000D02*
Y8600D01*
X39050D01*
X39150Y8500D01*
Y8300D01*
X39050Y8200D01*
X38750D01*
X38950D02*
X39150Y8000D01*
X39750D02*
X39350D01*
X39750Y8400D01*
Y8500D01*
X39650Y8600D01*
X39450D01*
X39350Y8500D01*
X38625Y11875D02*
Y12475D01*
X38925D01*
X39025Y12375D01*
Y12175D01*
X38925Y12075D01*
X38625D01*
X38825D02*
X39025Y11875D01*
X39225D02*
X39425D01*
X39325D01*
Y12475D01*
X39225Y12375D01*
X40250Y8675D02*
Y8375D01*
X40450D01*
X40750Y8675D02*
X40550D01*
Y8375D01*
X40750D01*
X40550Y8525D02*
X40650D01*
X40850Y8675D02*
Y8375D01*
X41000D01*
X41050Y8425D01*
Y8625D01*
X41000Y8675D01*
X40850D01*
X41350Y8375D02*
X41150D01*
X41350Y8575D01*
Y8625D01*
X41300Y8675D01*
X41200D01*
X41150Y8625D01*
X40375Y12550D02*
Y12250D01*
X40575D01*
X40875Y12550D02*
X40675D01*
Y12250D01*
X40875D01*
X40675Y12400D02*
X40775D01*
X40975Y12550D02*
Y12250D01*
X41125D01*
X41175Y12300D01*
Y12500D01*
X41125Y12550D01*
X40975D01*
X41275Y12250D02*
X41375D01*
X41325D01*
Y12550D01*
X41275Y12500D01*
X13125Y11275D02*
Y10776D01*
X13225Y10676D01*
X13425D01*
X13525Y10776D01*
Y11275D01*
X13725Y10676D02*
X13925D01*
X13825D01*
Y11275D01*
X13725Y11175D01*
X23275Y11975D02*
Y12375D01*
X23175Y12475D01*
X22975D01*
X22875Y12375D01*
Y11975D01*
X22975Y11875D01*
X23175D01*
X23075Y12075D02*
X23275Y11875D01*
X23175D02*
X23275Y11975D01*
X23475Y11875D02*
X23675D01*
X23575D01*
Y12475D01*
X23475Y12375D01*
X16400Y11500D02*
X16300Y11600D01*
X16100D01*
X16000Y11500D01*
Y11100D01*
X16100Y11000D01*
X16300D01*
X16400Y11100D01*
X16600Y11000D02*
X16800D01*
X16700D01*
Y11600D01*
X16600Y11500D01*
X34250Y11000D02*
X34583D01*
X34417D01*
Y12000D01*
X34250Y11833D01*
X34666Y8375D02*
X34000D01*
X34666Y9041D01*
Y9208D01*
X34500Y9375D01*
X34167D01*
X34000Y9208D01*
Y6708D02*
X34167Y6875D01*
X34500D01*
X34666Y6708D01*
Y6541D01*
X34500Y6375D01*
X34333D01*
X34500D01*
X34666Y6208D01*
Y6042D01*
X34500Y5875D01*
X34167D01*
X34000Y6042D01*
X7541Y12333D02*
X7375Y12500D01*
X7042D01*
X6875Y12333D01*
Y11667D01*
X7042Y11500D01*
X7375D01*
X7541Y11667D01*
Y12000D01*
X7208D01*
X7875Y11500D02*
Y12500D01*
X8541Y11500D01*
Y12500D01*
X8874D02*
Y11500D01*
X9374D01*
X9541Y11667D01*
Y12333D01*
X9374Y12500D01*
X8874D01*
X3041Y12500D02*
X2375D01*
Y12000D01*
X2708Y12166D01*
X2875D01*
X3041Y12000D01*
Y11667D01*
X2875Y11500D01*
X2542D01*
X2375Y11667D01*
X3375Y12500D02*
Y11833D01*
X3708Y11500D01*
X4041Y11833D01*
Y12500D01*
X37125Y11500D02*
X37791D01*
X37458Y11833D02*
Y11167D01*
X37125Y8875D02*
X37791D01*
X37458Y9208D02*
Y8542D01*
X37125Y6375D02*
X37791D01*
X37458Y6708D02*
Y6042D01*
X37125Y4625D02*
X37791D01*
X37458D01*
Y3625D01*
X38791D02*
X38125D01*
X38791Y4291D01*
Y4458D01*
X38625Y4625D01*
X38291D01*
X38125Y4458D01*
X32250Y4625D02*
X32916D01*
X32583D01*
Y3625D01*
X33250D02*
X33583D01*
X33416D01*
Y4625D01*
X33250Y4458D01*
X27250Y4625D02*
X27916D01*
X27583D01*
Y3625D01*
X28250Y4458D02*
X28416Y4625D01*
X28750D01*
X28916Y4458D01*
Y3792D01*
X28750Y3625D01*
X28416D01*
X28250Y3792D01*
Y4458D01*
M02*
