G04 Layer_Physical_Order=2*
G04 Layer_Color=16711680*
%FSLAX43Y43*%
%MOMM*%
G71*
G01*
G75*
%ADD15C,0.254*%
%ADD16C,0.500*%
%ADD17C,1.524*%
%ADD18C,1.200*%
%ADD19C,1.500*%
%ADD20R,1.500X1.500*%
%ADD21C,1.000*%
%ADD22C,1.270*%
G36*
X607Y13787D02*
X816Y13627D01*
X848Y13613D01*
X849Y13610D01*
X960Y13445D01*
X2901Y11503D01*
X3066Y11393D01*
X3140Y11378D01*
X3247Y11185D01*
X3247Y11182D01*
X3212Y11097D01*
X3183Y10875D01*
X3212Y10653D01*
X3298Y10446D01*
X3434Y10269D01*
X3540Y10187D01*
X3480Y10009D01*
X3250D01*
X3103Y9980D01*
X2978Y9897D01*
X2978Y9897D01*
X2059Y8978D01*
X1929Y9077D01*
X1722Y9163D01*
X1500Y9192D01*
X1278Y9163D01*
X1071Y9077D01*
X894Y8941D01*
X758Y8764D01*
X672Y8557D01*
X643Y8335D01*
X672Y8113D01*
X758Y7906D01*
X894Y7729D01*
X1071Y7593D01*
X1278Y7507D01*
X1500Y7478D01*
X1722Y7507D01*
X1929Y7593D01*
X2106Y7729D01*
X2242Y7906D01*
X2328Y8113D01*
X2335Y8167D01*
X3378Y9210D01*
X3476Y9198D01*
X3527Y9013D01*
X3434Y8941D01*
X3298Y8764D01*
X3212Y8557D01*
X3183Y8335D01*
X3212Y8113D01*
X3298Y7906D01*
X3434Y7729D01*
X3611Y7593D01*
X3818Y7507D01*
X4040Y7478D01*
X4262Y7507D01*
X4469Y7593D01*
X4646Y7729D01*
X4782Y7906D01*
X4801Y7951D01*
X9756D01*
X10768Y6938D01*
X10744Y6750D01*
X10769Y6554D01*
X10845Y6372D01*
X10965Y6215D01*
X11122Y6095D01*
X11304Y6019D01*
X11500Y5994D01*
X11696Y6019D01*
X11878Y6095D01*
X12035Y6215D01*
X12155Y6372D01*
X12231Y6554D01*
X12256Y6750D01*
X12231Y6946D01*
X12155Y7128D01*
X12035Y7285D01*
X11878Y7405D01*
X11696Y7481D01*
X11500Y7506D01*
X11312Y7482D01*
X10203Y8591D01*
X10200Y8654D01*
X10238Y8787D01*
X10378Y8845D01*
X10535Y8965D01*
X10655Y9122D01*
X10731Y9304D01*
X10740Y9375D01*
X9260D01*
X9269Y9304D01*
X9345Y9122D01*
X9465Y8965D01*
X9554Y8897D01*
X9493Y8719D01*
X4801D01*
X4782Y8764D01*
X4646Y8941D01*
X4488Y9063D01*
X4490Y9128D01*
X4538Y9241D01*
X7875D01*
X7875Y9241D01*
X8022Y9270D01*
X8147Y9353D01*
X9909Y11116D01*
X13100D01*
X13215Y10965D01*
X13366Y10850D01*
Y4613D01*
X13366Y4613D01*
X13395Y4466D01*
X13478Y4341D01*
X14968Y2851D01*
X14968Y2851D01*
X15093Y2768D01*
X15240Y2739D01*
X15240Y2739D01*
X15642D01*
X15730Y2561D01*
X15686Y2504D01*
X15586Y2261D01*
X15551Y2000D01*
X15586Y1739D01*
X15686Y1496D01*
X15847Y1287D01*
X16056Y1127D01*
X16299Y1026D01*
X16560Y991D01*
X16821Y1026D01*
X17064Y1127D01*
X17273Y1287D01*
X17434Y1496D01*
X17534Y1739D01*
X17569Y2000D01*
X17534Y2261D01*
X17434Y2504D01*
X17390Y2561D01*
X17478Y2739D01*
X18100D01*
Y1000D01*
X20100D01*
Y2866D01*
X20862D01*
X20907Y2688D01*
X20767Y2504D01*
X20666Y2261D01*
X20631Y2000D01*
X20666Y1739D01*
X20767Y1496D01*
X20927Y1287D01*
X21136Y1127D01*
X21379Y1026D01*
X21640Y991D01*
X21901Y1026D01*
X22144Y1127D01*
X22353Y1287D01*
X22514Y1496D01*
X22614Y1739D01*
X22649Y2000D01*
X22614Y2261D01*
X22514Y2504D01*
X22470Y2561D01*
X22558Y2739D01*
X23113D01*
X23113Y2739D01*
X23180Y2684D01*
Y1000D01*
X25180D01*
Y2866D01*
X25720D01*
Y2125D01*
X27720D01*
Y2650D01*
X27898Y2724D01*
X28308Y2314D01*
X28286Y2261D01*
X28251Y2000D01*
X28286Y1739D01*
X28386Y1496D01*
X28547Y1287D01*
X28756Y1127D01*
X28999Y1026D01*
X29260Y991D01*
X29521Y1026D01*
X29764Y1127D01*
X29973Y1287D01*
X30133Y1496D01*
X30234Y1739D01*
X30269Y2000D01*
X30234Y2261D01*
X30133Y2504D01*
X29973Y2713D01*
X29764Y2874D01*
X29521Y2974D01*
X29260Y3009D01*
X28999Y2974D01*
X28812Y2897D01*
X28544Y3164D01*
X28579Y3339D01*
X28645Y3366D01*
X28857Y3528D01*
X29019Y3740D01*
X29121Y3986D01*
X29156Y4250D01*
X29121Y4514D01*
X29019Y4760D01*
X28883Y4938D01*
X28936Y5116D01*
X30808D01*
X32447Y3476D01*
X32447Y3476D01*
X32572Y3393D01*
X32719Y3364D01*
X32719Y3364D01*
X36567D01*
X36758Y3172D01*
X36695Y2984D01*
X36619Y2974D01*
X36376Y2874D01*
X36167Y2713D01*
X36007Y2504D01*
X35906Y2261D01*
X35888Y2125D01*
X36880D01*
Y2000D01*
X37005D01*
Y1008D01*
X37141Y1026D01*
X37384Y1127D01*
X37593Y1287D01*
X37754Y1496D01*
X37854Y1739D01*
X37864Y1815D01*
X38052Y1878D01*
X38202Y1728D01*
X38202Y1728D01*
X38327Y1645D01*
X38474Y1616D01*
X38474Y1616D01*
X38497D01*
X38547Y1496D01*
X38707Y1287D01*
X38916Y1127D01*
X39159Y1026D01*
X39420Y991D01*
X39681Y1026D01*
X39924Y1127D01*
X40133Y1287D01*
X40293Y1496D01*
X40394Y1739D01*
X40429Y2000D01*
X40394Y2261D01*
X40293Y2504D01*
X40133Y2713D01*
X39924Y2874D01*
X39681Y2974D01*
X39420Y3009D01*
X39159Y2974D01*
X38916Y2874D01*
X38707Y2713D01*
X38641Y2628D01*
X38405Y2612D01*
X36998Y4020D01*
X36989Y4025D01*
X36980Y4037D01*
X36950Y4255D01*
X37039Y4371D01*
X37139Y4614D01*
X37174Y4875D01*
X37139Y5136D01*
X37039Y5379D01*
X36878Y5588D01*
X36669Y5748D01*
X36426Y5849D01*
X36165Y5884D01*
X35904Y5849D01*
X35661Y5748D01*
X35452Y5588D01*
X35292Y5379D01*
X35191Y5136D01*
X35156Y4875D01*
X35191Y4614D01*
X35292Y4371D01*
X35338Y4310D01*
X35250Y4132D01*
X34625D01*
Y5875D01*
X33038D01*
X32970Y6039D01*
X33371Y6440D01*
X33625Y6406D01*
X33886Y6441D01*
X34129Y6542D01*
X34338Y6702D01*
X34499Y6911D01*
X34599Y7154D01*
X34609Y7227D01*
X34797Y7290D01*
X35032Y7055D01*
X35198Y6944D01*
X35285Y6927D01*
X35292Y6911D01*
X35452Y6702D01*
X35661Y6542D01*
X35904Y6441D01*
X36165Y6406D01*
X36426Y6441D01*
X36669Y6542D01*
X36878Y6702D01*
X36945Y6789D01*
X37087Y6884D01*
X37188Y6828D01*
X37261Y6779D01*
X37456Y6740D01*
X37962D01*
X37992Y6702D01*
X38201Y6542D01*
X38444Y6441D01*
X38705Y6406D01*
X38966Y6441D01*
X39209Y6542D01*
X39418Y6702D01*
X39578Y6911D01*
X39679Y7154D01*
X39714Y7415D01*
X39694Y7562D01*
X39832Y7740D01*
X40121D01*
X40259Y7587D01*
X40236Y7415D01*
X40271Y7154D01*
X40371Y6911D01*
X40532Y6702D01*
X40741Y6542D01*
X40984Y6441D01*
X41245Y6406D01*
X41506Y6441D01*
X41749Y6542D01*
X41958Y6702D01*
X42118Y6911D01*
X42188Y7078D01*
X42366Y7043D01*
Y5247D01*
X42188Y5212D01*
X42118Y5379D01*
X41958Y5588D01*
X41749Y5748D01*
X41506Y5849D01*
X41245Y5884D01*
X40984Y5849D01*
X40741Y5748D01*
X40532Y5588D01*
X40371Y5379D01*
X40271Y5136D01*
X40236Y4875D01*
X40271Y4614D01*
X40371Y4371D01*
X40532Y4162D01*
X40741Y4002D01*
X40984Y3901D01*
X41245Y3866D01*
X41506Y3901D01*
X41749Y4002D01*
X41958Y4162D01*
X42118Y4371D01*
X42188Y4538D01*
X42366Y4503D01*
Y384D01*
X384D01*
Y1285D01*
X562Y1345D01*
X607Y1287D01*
X816Y1127D01*
X1059Y1026D01*
X1320Y991D01*
X1581Y1026D01*
X1824Y1127D01*
X2033Y1287D01*
X2194Y1496D01*
X2294Y1739D01*
X2329Y2000D01*
X2294Y2261D01*
X2194Y2504D01*
X2033Y2713D01*
X1824Y2874D01*
X1581Y2974D01*
X1320Y3009D01*
X1059Y2974D01*
X816Y2874D01*
X607Y2713D01*
X562Y2655D01*
X384Y2715D01*
Y13785D01*
X562Y13845D01*
X607Y13787D01*
D02*
G37*
G36*
X20616Y13375D02*
X20645Y13228D01*
X20728Y13103D01*
X20853Y13020D01*
X21000Y12991D01*
X42366D01*
Y7787D01*
X42188Y7752D01*
X42118Y7919D01*
X41958Y8128D01*
X41749Y8288D01*
X41506Y8389D01*
X41245Y8424D01*
X40991Y8390D01*
X40770Y8610D01*
X40605Y8721D01*
X40410Y8760D01*
X39849D01*
X39498Y9110D01*
X39333Y9221D01*
X39138Y9260D01*
X37870D01*
X37354Y9775D01*
X37189Y9886D01*
X36993Y9925D01*
X35725D01*
X35125Y10525D01*
X34959Y10636D01*
X34764Y10675D01*
X32486D01*
X32291Y10636D01*
X32125Y10525D01*
X31110Y9510D01*
X25224D01*
X25131Y9631D01*
X24946Y9773D01*
X24731Y9862D01*
X24500Y9893D01*
X24269Y9862D01*
X24054Y9773D01*
X23869Y9631D01*
X23727Y9446D01*
X23638Y9231D01*
X23621Y9102D01*
X23433Y9038D01*
X23218Y9253D01*
X23238Y9405D01*
X23207Y9636D01*
X23118Y9851D01*
X22976Y10036D01*
X22791Y10178D01*
X22576Y10267D01*
X22345Y10298D01*
X22114Y10267D01*
X21899Y10178D01*
X21714Y10036D01*
X21572Y9851D01*
X21483Y9636D01*
X21452Y9405D01*
X21483Y9174D01*
X21572Y8959D01*
X21714Y8774D01*
X21899Y8632D01*
X22114Y8543D01*
X22345Y8512D01*
X22497Y8532D01*
X23478Y7551D01*
X23410Y7387D01*
X22809D01*
X20835Y9360D01*
X20670Y9471D01*
X20475Y9510D01*
X19625D01*
X19612Y9606D01*
X19523Y9821D01*
X19381Y10006D01*
X19196Y10148D01*
X18981Y10237D01*
X18750Y10268D01*
X18519Y10237D01*
X18304Y10148D01*
X18119Y10006D01*
X18002Y9854D01*
X17874Y9830D01*
X17791Y9836D01*
X17756Y9881D01*
X17571Y10023D01*
X17356Y10112D01*
X17125Y10143D01*
X16894Y10112D01*
X16679Y10023D01*
X16494Y9881D01*
X16352Y9696D01*
X16263Y9481D01*
X16233Y9250D01*
X16263Y9019D01*
X16352Y8804D01*
X16494Y8619D01*
X16679Y8477D01*
X16894Y8388D01*
X17125Y8357D01*
X17356Y8388D01*
X17367Y8392D01*
X17880Y7880D01*
X18045Y7769D01*
X18240Y7730D01*
X18965D01*
X19063Y7552D01*
X19019Y7446D01*
X19010Y7375D01*
X19750D01*
Y7250D01*
X19875D01*
Y6510D01*
X19946Y6519D01*
X20128Y6595D01*
X20285Y6715D01*
X20506Y6711D01*
X21168Y6049D01*
X21100Y5884D01*
X16500D01*
X16500Y5884D01*
X16353Y5855D01*
X16228Y5772D01*
X16228Y5772D01*
X16116Y5660D01*
X15946Y5731D01*
X15750Y5756D01*
X15554Y5731D01*
X15372Y5655D01*
X15215Y5535D01*
X15186Y5497D01*
X15008Y5558D01*
Y10623D01*
X15110Y10725D01*
X15221Y10891D01*
X15260Y11086D01*
Y11914D01*
X15238Y12024D01*
Y12127D01*
X15199Y12322D01*
X15089Y12487D01*
X14976Y12562D01*
X15030Y12740D01*
X15310D01*
X15505Y12779D01*
X15670Y12890D01*
X16306Y13525D01*
X16560Y13491D01*
X16821Y13526D01*
X17064Y13627D01*
X17273Y13787D01*
X17434Y13996D01*
X17534Y14239D01*
X17569Y14500D01*
X17534Y14761D01*
X17434Y15004D01*
X17273Y15213D01*
X17064Y15373D01*
X16821Y15474D01*
X16560Y15509D01*
X16299Y15474D01*
X16056Y15373D01*
X15847Y15213D01*
X15686Y15004D01*
X15586Y14761D01*
X15551Y14500D01*
X15585Y14246D01*
X15101Y13762D01*
X14928Y13777D01*
X14849Y13938D01*
X14894Y13996D01*
X14994Y14239D01*
X15029Y14500D01*
X14994Y14761D01*
X14894Y15004D01*
X14733Y15213D01*
X14524Y15373D01*
X14281Y15474D01*
X14020Y15509D01*
X13759Y15474D01*
X13516Y15373D01*
X13307Y15213D01*
X13146Y15004D01*
X13046Y14761D01*
X13011Y14500D01*
X13046Y14239D01*
X13146Y13996D01*
X13191Y13938D01*
X13103Y13760D01*
X12397D01*
X12309Y13938D01*
X12354Y13996D01*
X12454Y14239D01*
X12489Y14500D01*
X12454Y14761D01*
X12354Y15004D01*
X12193Y15213D01*
X11984Y15373D01*
X11741Y15474D01*
X11480Y15509D01*
X11219Y15474D01*
X10976Y15373D01*
X10767Y15213D01*
X10606Y15004D01*
X10506Y14761D01*
X10471Y14500D01*
X10506Y14239D01*
X10606Y13996D01*
X10651Y13938D01*
X10563Y13760D01*
X9857D01*
X9769Y13938D01*
X9814Y13996D01*
X9914Y14239D01*
X9949Y14500D01*
X9914Y14761D01*
X9814Y15004D01*
X9653Y15213D01*
X9444Y15373D01*
X9201Y15474D01*
X8940Y15509D01*
X8679Y15474D01*
X8436Y15373D01*
X8227Y15213D01*
X8066Y15004D01*
X7966Y14761D01*
X7931Y14500D01*
X7966Y14239D01*
X8066Y13996D01*
X8111Y13938D01*
X8095Y13862D01*
X8030Y13751D01*
X7878Y13721D01*
X7713Y13610D01*
X7068Y12966D01*
X7037Y12970D01*
X6841Y12944D01*
X6659Y12868D01*
X6502Y12748D01*
X6382Y12591D01*
X6306Y12409D01*
X6280Y12213D01*
X6306Y12017D01*
X6382Y11835D01*
X6502Y11678D01*
X6653Y11563D01*
X6654Y11545D01*
X6612Y11385D01*
X6019D01*
X4918Y12485D01*
X4753Y12596D01*
X4558Y12635D01*
X3522D01*
X3327Y12596D01*
X3281Y12565D01*
X2044Y13801D01*
X2194Y13996D01*
X2294Y14239D01*
X2329Y14500D01*
X2294Y14761D01*
X2194Y15004D01*
X2033Y15213D01*
X1824Y15373D01*
X1581Y15474D01*
X1320Y15509D01*
X1059Y15474D01*
X816Y15373D01*
X607Y15213D01*
X562Y15155D01*
X384Y15215D01*
Y15866D01*
X20616D01*
Y13375D01*
D02*
G37*
%LPC*%
G36*
X31925Y2992D02*
Y2125D01*
X32792D01*
X32774Y2261D01*
X32674Y2504D01*
X32513Y2713D01*
X32304Y2874D01*
X32061Y2974D01*
X31925Y2992D01*
D02*
G37*
G36*
X31675D02*
X31539Y2974D01*
X31296Y2874D01*
X31087Y2713D01*
X30927Y2504D01*
X30826Y2261D01*
X30808Y2125D01*
X31675D01*
Y2992D01*
D02*
G37*
G36*
X36755Y1875D02*
X35888D01*
X35906Y1739D01*
X36007Y1496D01*
X36167Y1287D01*
X36376Y1127D01*
X36619Y1026D01*
X36755Y1008D01*
Y1875D01*
D02*
G37*
G36*
X12392Y3863D02*
X11777D01*
X11786Y3792D01*
X11862Y3610D01*
X11982Y3453D01*
X12139Y3333D01*
X12321Y3257D01*
X12392Y3248D01*
Y3863D01*
D02*
G37*
G36*
Y4728D02*
X12321Y4719D01*
X12139Y4643D01*
X11982Y4523D01*
X11862Y4366D01*
X11786Y4184D01*
X11777Y4113D01*
X12392D01*
Y4728D01*
D02*
G37*
G36*
X12642D02*
Y4113D01*
X13257D01*
X13248Y4184D01*
X13172Y4366D01*
X13052Y4523D01*
X12895Y4643D01*
X12713Y4719D01*
X12642Y4728D01*
D02*
G37*
G36*
X13257Y3863D02*
X12642D01*
Y3248D01*
X12713Y3257D01*
X12895Y3333D01*
X13052Y3453D01*
X13172Y3610D01*
X13248Y3792D01*
X13257Y3863D01*
D02*
G37*
G36*
X38705Y5884D02*
X38444Y5849D01*
X38201Y5748D01*
X37992Y5588D01*
X37832Y5379D01*
X37731Y5136D01*
X37696Y4875D01*
X37731Y4614D01*
X37832Y4371D01*
X37992Y4162D01*
X38201Y4002D01*
X38444Y3901D01*
X38705Y3866D01*
X38966Y3901D01*
X39209Y4002D01*
X39418Y4162D01*
X39578Y4371D01*
X39679Y4614D01*
X39714Y4875D01*
X39679Y5136D01*
X39578Y5379D01*
X39418Y5588D01*
X39209Y5748D01*
X38966Y5849D01*
X38705Y5884D01*
D02*
G37*
G36*
X32792Y1875D02*
X31925D01*
Y1008D01*
X32061Y1026D01*
X32304Y1127D01*
X32513Y1287D01*
X32674Y1496D01*
X32774Y1739D01*
X32792Y1875D01*
D02*
G37*
G36*
X8940Y3009D02*
X8679Y2974D01*
X8436Y2874D01*
X8227Y2713D01*
X8066Y2504D01*
X7966Y2261D01*
X7931Y2000D01*
X7966Y1739D01*
X8066Y1496D01*
X8227Y1287D01*
X8436Y1127D01*
X8679Y1026D01*
X8940Y991D01*
X9201Y1026D01*
X9444Y1127D01*
X9653Y1287D01*
X9814Y1496D01*
X9914Y1739D01*
X9949Y2000D01*
X9914Y2261D01*
X9814Y2504D01*
X9653Y2713D01*
X9444Y2874D01*
X9201Y2974D01*
X8940Y3009D01*
D02*
G37*
G36*
X11480D02*
X11219Y2974D01*
X10976Y2874D01*
X10767Y2713D01*
X10606Y2504D01*
X10506Y2261D01*
X10471Y2000D01*
X10506Y1739D01*
X10606Y1496D01*
X10767Y1287D01*
X10976Y1127D01*
X11219Y1026D01*
X11480Y991D01*
X11741Y1026D01*
X11984Y1127D01*
X12193Y1287D01*
X12354Y1496D01*
X12454Y1739D01*
X12489Y2000D01*
X12454Y2261D01*
X12354Y2504D01*
X12193Y2713D01*
X11984Y2874D01*
X11741Y2974D01*
X11480Y3009D01*
D02*
G37*
G36*
X3860D02*
X3599Y2974D01*
X3356Y2874D01*
X3147Y2713D01*
X2987Y2504D01*
X2886Y2261D01*
X2851Y2000D01*
X2886Y1739D01*
X2987Y1496D01*
X3147Y1287D01*
X3356Y1127D01*
X3599Y1026D01*
X3860Y991D01*
X4121Y1026D01*
X4364Y1127D01*
X4573Y1287D01*
X4734Y1496D01*
X4834Y1739D01*
X4869Y2000D01*
X4834Y2261D01*
X4734Y2504D01*
X4573Y2713D01*
X4364Y2874D01*
X4121Y2974D01*
X3860Y3009D01*
D02*
G37*
G36*
X6400D02*
X6139Y2974D01*
X5896Y2874D01*
X5687Y2713D01*
X5527Y2504D01*
X5426Y2261D01*
X5391Y2000D01*
X5426Y1739D01*
X5527Y1496D01*
X5687Y1287D01*
X5896Y1127D01*
X6139Y1026D01*
X6400Y991D01*
X6661Y1026D01*
X6904Y1127D01*
X7113Y1287D01*
X7273Y1496D01*
X7374Y1739D01*
X7409Y2000D01*
X7374Y2261D01*
X7273Y2504D01*
X7113Y2713D01*
X6904Y2874D01*
X6661Y2974D01*
X6400Y3009D01*
D02*
G37*
G36*
X14020D02*
X13759Y2974D01*
X13516Y2874D01*
X13307Y2713D01*
X13146Y2504D01*
X13046Y2261D01*
X13011Y2000D01*
X13046Y1739D01*
X13146Y1496D01*
X13307Y1287D01*
X13516Y1127D01*
X13759Y1026D01*
X14020Y991D01*
X14281Y1026D01*
X14524Y1127D01*
X14733Y1287D01*
X14894Y1496D01*
X14994Y1739D01*
X15029Y2000D01*
X14994Y2261D01*
X14894Y2504D01*
X14733Y2713D01*
X14524Y2874D01*
X14281Y2974D01*
X14020Y3009D01*
D02*
G37*
G36*
X27720Y1875D02*
X26845D01*
Y1000D01*
X27720D01*
Y1875D01*
D02*
G37*
G36*
X31675D02*
X30808D01*
X30826Y1739D01*
X30927Y1496D01*
X31087Y1287D01*
X31296Y1127D01*
X31539Y1026D01*
X31675Y1008D01*
Y1875D01*
D02*
G37*
G36*
X34340Y3009D02*
X34079Y2974D01*
X33836Y2874D01*
X33627Y2713D01*
X33466Y2504D01*
X33366Y2261D01*
X33331Y2000D01*
X33366Y1739D01*
X33466Y1496D01*
X33627Y1287D01*
X33836Y1127D01*
X34079Y1026D01*
X34340Y991D01*
X34601Y1026D01*
X34844Y1127D01*
X35053Y1287D01*
X35214Y1496D01*
X35314Y1739D01*
X35349Y2000D01*
X35314Y2261D01*
X35214Y2504D01*
X35053Y2713D01*
X34844Y2874D01*
X34601Y2974D01*
X34340Y3009D01*
D02*
G37*
G36*
X26595Y1875D02*
X25720D01*
Y1000D01*
X26595D01*
Y1875D01*
D02*
G37*
G36*
X1500Y6652D02*
X1278Y6623D01*
X1071Y6537D01*
X894Y6401D01*
X758Y6224D01*
X672Y6017D01*
X643Y5795D01*
X672Y5573D01*
X758Y5366D01*
X894Y5189D01*
X1071Y5053D01*
X1278Y4967D01*
X1500Y4938D01*
X1722Y4967D01*
X1929Y5053D01*
X2106Y5189D01*
X2242Y5366D01*
X2328Y5573D01*
X2357Y5795D01*
X2328Y6017D01*
X2242Y6224D01*
X2106Y6401D01*
X1929Y6537D01*
X1722Y6623D01*
X1500Y6652D01*
D02*
G37*
G36*
X20100Y14375D02*
X19225D01*
Y13500D01*
X20100D01*
Y14375D01*
D02*
G37*
G36*
X3735D02*
X2868D01*
X2886Y14239D01*
X2987Y13996D01*
X3147Y13787D01*
X3356Y13627D01*
X3599Y13526D01*
X3735Y13508D01*
Y14375D01*
D02*
G37*
G36*
X6400Y15509D02*
X6139Y15474D01*
X5896Y15373D01*
X5687Y15213D01*
X5527Y15004D01*
X5426Y14761D01*
X5391Y14500D01*
X5426Y14239D01*
X5527Y13996D01*
X5687Y13787D01*
X5896Y13627D01*
X6139Y13526D01*
X6400Y13491D01*
X6661Y13526D01*
X6904Y13627D01*
X7113Y13787D01*
X7273Y13996D01*
X7374Y14239D01*
X7409Y14500D01*
X7374Y14761D01*
X7273Y15004D01*
X7113Y15213D01*
X6904Y15373D01*
X6661Y15474D01*
X6400Y15509D01*
D02*
G37*
G36*
X18975Y14375D02*
X18100D01*
Y13500D01*
X18975D01*
Y14375D01*
D02*
G37*
G36*
X4852D02*
X3985D01*
Y13508D01*
X4121Y13526D01*
X4364Y13627D01*
X4573Y13787D01*
X4734Y13996D01*
X4834Y14239D01*
X4852Y14375D01*
D02*
G37*
G36*
X3985Y15492D02*
Y14625D01*
X4852D01*
X4834Y14761D01*
X4734Y15004D01*
X4573Y15213D01*
X4364Y15373D01*
X4121Y15474D01*
X3985Y15492D01*
D02*
G37*
G36*
X20100Y15500D02*
X19225D01*
Y14625D01*
X20100D01*
Y15500D01*
D02*
G37*
G36*
X18975D02*
X18100D01*
Y14625D01*
X18975D01*
Y15500D01*
D02*
G37*
G36*
X3735Y15492D02*
X3599Y15474D01*
X3356Y15373D01*
X3147Y15213D01*
X2987Y15004D01*
X2886Y14761D01*
X2868Y14625D01*
X3735D01*
Y15492D01*
D02*
G37*
G36*
X9826Y6936D02*
X9631Y6911D01*
X9448Y6835D01*
X9292Y6715D01*
X9171Y6558D01*
X9105Y6399D01*
X7220Y4513D01*
X7042Y4525D01*
X7035Y4535D01*
X6878Y4655D01*
X6696Y4731D01*
X6500Y4756D01*
X6304Y4731D01*
X6122Y4655D01*
X5965Y4535D01*
X5845Y4378D01*
X5769Y4196D01*
X5744Y4000D01*
X5769Y3804D01*
X5845Y3622D01*
X5965Y3465D01*
X6122Y3345D01*
X6304Y3269D01*
X6500Y3244D01*
X6696Y3269D01*
X6878Y3345D01*
X7035Y3465D01*
X7150Y3616D01*
X7250D01*
X7250Y3616D01*
X7397Y3645D01*
X7522Y3728D01*
X9375Y5581D01*
X9448Y5525D01*
X9631Y5449D01*
X9826Y5424D01*
X10022Y5449D01*
X10205Y5525D01*
X10361Y5645D01*
X10482Y5802D01*
X10557Y5984D01*
X10583Y6180D01*
X10557Y6376D01*
X10482Y6558D01*
X10361Y6715D01*
X10205Y6835D01*
X10022Y6911D01*
X9826Y6936D01*
D02*
G37*
G36*
X3915Y6636D02*
X3818Y6623D01*
X3611Y6537D01*
X3434Y6401D01*
X3298Y6224D01*
X3212Y6017D01*
X3199Y5920D01*
X3915D01*
Y6636D01*
D02*
G37*
G36*
Y5670D02*
X3199D01*
X3212Y5573D01*
X3298Y5366D01*
X3434Y5189D01*
X3611Y5053D01*
X3818Y4967D01*
X3915Y4954D01*
Y5670D01*
D02*
G37*
G36*
X4881D02*
X4165D01*
Y4954D01*
X4262Y4967D01*
X4469Y5053D01*
X4646Y5189D01*
X4782Y5366D01*
X4868Y5573D01*
X4881Y5670D01*
D02*
G37*
G36*
X4165Y6636D02*
Y5920D01*
X4881D01*
X4868Y6017D01*
X4782Y6224D01*
X4646Y6401D01*
X4469Y6537D01*
X4262Y6623D01*
X4165Y6636D01*
D02*
G37*
G36*
X10125Y10240D02*
Y9625D01*
X10740D01*
X10731Y9696D01*
X10655Y9878D01*
X10535Y10035D01*
X10378Y10155D01*
X10196Y10231D01*
X10125Y10240D01*
D02*
G37*
G36*
X1500Y11732D02*
X1278Y11703D01*
X1071Y11617D01*
X894Y11481D01*
X758Y11304D01*
X672Y11097D01*
X643Y10875D01*
X672Y10653D01*
X758Y10446D01*
X894Y10269D01*
X1071Y10133D01*
X1278Y10047D01*
X1500Y10018D01*
X1722Y10047D01*
X1929Y10133D01*
X2106Y10269D01*
X2242Y10446D01*
X2328Y10653D01*
X2357Y10875D01*
X2328Y11097D01*
X2242Y11304D01*
X2106Y11481D01*
X1929Y11617D01*
X1722Y11703D01*
X1500Y11732D01*
D02*
G37*
G36*
X19625Y7125D02*
X19010D01*
X19019Y7054D01*
X19095Y6872D01*
X19215Y6715D01*
X19372Y6595D01*
X19554Y6519D01*
X19625Y6510D01*
Y7125D01*
D02*
G37*
G36*
X9875Y10240D02*
X9804Y10231D01*
X9622Y10155D01*
X9465Y10035D01*
X9345Y9878D01*
X9269Y9696D01*
X9260Y9625D01*
X9875D01*
Y10240D01*
D02*
G37*
%LPD*%
D15*
X17150Y3250D02*
X22260D01*
X17027Y3127D02*
X17150Y3250D01*
X38474Y2000D02*
X39325D01*
X36726Y3748D02*
X38474Y2000D01*
X30967Y5500D02*
X32719Y3748D01*
X16500Y5500D02*
X30967D01*
X16012Y5012D02*
X16500Y5500D01*
X27915Y3250D02*
X29165Y2000D01*
X23240Y3250D02*
X27915D01*
X9915Y8335D02*
X11500Y6750D01*
X4040Y8335D02*
X9915D01*
X9430Y6180D02*
X9826D01*
X7250Y4000D02*
X9430Y6180D01*
X1500Y8335D02*
X1960D01*
X3250Y9625D01*
X7875D01*
X9750Y11500D01*
X6500Y4000D02*
X7250D01*
X15240Y3123D02*
X16089D01*
X13750Y4613D02*
X15240Y3123D01*
X9750Y11500D02*
X13750D01*
Y4613D02*
Y11500D01*
X16089Y3123D02*
X16093Y3127D01*
X17027D01*
X32719Y3748D02*
X36726D01*
X22260Y3250D02*
X22387Y3123D01*
X23113D01*
X23240Y3250D01*
D16*
X3261Y11864D02*
X3522Y12125D01*
X3261Y11864D02*
X3261D01*
X3522Y12125D02*
X4558D01*
X39138Y8750D02*
X39638Y8250D01*
X37658Y8750D02*
X39138D01*
X36993Y9415D02*
X37658Y8750D01*
X36683Y8665D02*
X37415Y7933D01*
X35647Y8665D02*
X36683D01*
X37415Y7291D02*
Y7933D01*
X20750Y7188D02*
Y7664D01*
X21810Y6127D02*
X31227D01*
X20750Y7188D02*
X21810Y6127D01*
X17125Y9355D02*
X18240Y8240D01*
X19326D02*
X19336Y8250D01*
X18240Y8240D02*
X19326D01*
X31537Y6877D02*
X31782Y6632D01*
X20475Y9000D02*
X22598Y6877D01*
X31227Y6127D02*
X31604Y5750D01*
X22598Y6877D02*
X31537D01*
X31337Y7627D02*
X31625Y7915D01*
X24123Y7627D02*
X31337D01*
X22345Y9405D02*
X24123Y7627D01*
X31782Y6632D02*
X32375Y7226D01*
X31604Y5750D02*
X31960D01*
X16164Y4000D02*
X16164Y4000D01*
X22750D01*
X15250Y4000D02*
X16164D01*
X15310Y13250D02*
X16560Y14500D01*
X8074Y13250D02*
X15310D01*
X7037Y12213D02*
X8074Y13250D01*
X14499Y10834D02*
X14750Y11086D01*
X14499Y4751D02*
Y10834D01*
X14728Y11936D02*
Y12127D01*
Y11936D02*
X14750Y11914D01*
Y11086D02*
Y11914D01*
X14537Y12127D02*
X14728D01*
X14164Y12500D02*
X14537Y12127D01*
X13336Y12500D02*
X14164D01*
X12963Y12127D02*
X13336Y12500D01*
X9490Y12127D02*
X12963D01*
X8238Y10875D02*
X9490Y12127D01*
X5808Y10875D02*
X8238D01*
X4558Y12125D02*
X5808Y10875D01*
X1320Y13805D02*
Y14500D01*
X17125Y9250D02*
Y9355D01*
X35393Y7415D02*
X36165D01*
X19336Y8250D02*
X20164D01*
X20750Y7664D01*
X18750Y9375D02*
X19125Y9000D01*
X20475D01*
X38540Y7250D02*
X38705Y7415D01*
X37415Y7291D02*
X37456Y7250D01*
X38540D01*
X24500Y9000D02*
X31321D01*
X32375Y7933D02*
X33107Y8665D01*
X34143D01*
X35393Y7415D01*
X40410Y8250D02*
X41245Y7415D01*
X39638Y8250D02*
X40410D01*
X31625Y7915D02*
Y8243D01*
X32797Y9415D01*
X34453D01*
X35425Y8443D01*
X35425D01*
X35647Y8665D01*
X31321Y9000D02*
X32486Y10165D01*
X34764D01*
X35514Y9415D01*
X36993D01*
X24500Y9000D02*
X24500Y9000D01*
X31960Y5750D02*
X33625Y7415D01*
X32375Y7226D02*
Y7933D01*
X1320Y13805D02*
X3261Y11864D01*
X14499Y4751D02*
X15250Y4000D01*
D17*
X28135Y4250D02*
D03*
D18*
X4040Y5795D02*
D03*
X1500D02*
D03*
X4040Y8335D02*
D03*
X1500D02*
D03*
X4040Y10875D02*
D03*
X1500D02*
D03*
D19*
X21640Y2000D02*
D03*
X16560Y14500D02*
D03*
X14020D02*
D03*
X11480D02*
D03*
X8940D02*
D03*
X6400D02*
D03*
X3860D02*
D03*
X1320D02*
D03*
X16560Y2000D02*
D03*
X14020D02*
D03*
X11480D02*
D03*
X8940D02*
D03*
X6400D02*
D03*
X3860D02*
D03*
X1320D02*
D03*
X33625Y7415D02*
D03*
X36165Y4875D02*
D03*
Y7415D02*
D03*
X38705Y4875D02*
D03*
Y7415D02*
D03*
X41245Y4875D02*
D03*
Y7415D02*
D03*
X39420Y2000D02*
D03*
X36880D02*
D03*
X34340D02*
D03*
X31800D02*
D03*
X29260D02*
D03*
D20*
X24180D02*
D03*
X19100Y14500D02*
D03*
Y2000D02*
D03*
X33625Y4875D02*
D03*
X26720Y2000D02*
D03*
D21*
X10000Y9500D02*
D03*
X11500Y6750D02*
D03*
X9826Y6180D02*
D03*
X15750Y5000D02*
D03*
X7037Y12213D02*
D03*
X12517Y3988D02*
D03*
X22750Y4000D02*
D03*
X19750Y7250D02*
D03*
X6500Y4000D02*
D03*
X13750Y11500D02*
D03*
D22*
X17125Y9250D02*
D03*
X18750Y9375D02*
D03*
X22345Y9405D02*
D03*
X24500Y9000D02*
D03*
M02*
