M48
;Layer_Color=9474304
;FILE_FORMAT=4:4
METRIC
;TYPE=PLATED
T1F00S00C0.6000
T2F00S00C0.7112
T3F00S00C0.7620
T4F00S00C0.9000
%
T01
X00015000Y00057950
X00040400
Y00083350
X00015000
X00065000Y00040000
X00098265Y00061800
X00115000Y00067500
X00125170Y00039880
X00157500Y00050000
X00197500Y00072500
X00227502Y00040000
X00137500Y00115000
X00100000Y00095000
X00070368Y00122132
X00040400Y00108750
X00015000
T02
X00187502Y00093751
X00223450Y00094050
X00245000Y00090000
X00171251Y00092501
T03
X00281350Y00042500
T04
X00013200Y00020000
X00038600
X00064000
X00089400
X00114800
X00140200
X00165600
X00191000
X00216400
X00241800
X00267200
X00292600
X00318000
X00343400
X00368800
X00394200
X00387050Y00048750
X00361650
X00336250
Y00074150
X00361650
X00387050
X00412450
Y00048750
X00191000Y00145000
X00165600
X00140200
X00114800
X00089400
X00064000
X00038600
X00013200
M30
