G04 Layer_Color=8388736*
%FSLAX43Y43*%
%MOMM*%
G71*
G01*
G75*
G04:AMPARAMS|DCode=26|XSize=1.203mm|YSize=1.103mm|CornerRadius=0.214mm|HoleSize=0mm|Usage=FLASHONLY|Rotation=0.000|XOffset=0mm|YOffset=0mm|HoleType=Round|Shape=RoundedRectangle|*
%AMROUNDEDRECTD26*
21,1,1.203,0.675,0,0,0.0*
21,1,0.775,1.103,0,0,0.0*
1,1,0.428,0.388,-0.338*
1,1,0.428,-0.388,-0.338*
1,1,0.428,-0.388,0.338*
1,1,0.428,0.388,0.338*
%
%ADD26ROUNDEDRECTD26*%
G04:AMPARAMS|DCode=27|XSize=1.003mm|YSize=1.003mm|CornerRadius=0.202mm|HoleSize=0mm|Usage=FLASHONLY|Rotation=90.000|XOffset=0mm|YOffset=0mm|HoleType=Round|Shape=RoundedRectangle|*
%AMROUNDEDRECTD27*
21,1,1.003,0.600,0,0,90.0*
21,1,0.600,1.003,0,0,90.0*
1,1,0.403,0.300,0.300*
1,1,0.403,0.300,-0.300*
1,1,0.403,-0.300,-0.300*
1,1,0.403,-0.300,0.300*
%
%ADD27ROUNDEDRECTD27*%
%ADD28O,1.803X0.803*%
%ADD29O,2.403X0.803*%
G04:AMPARAMS|DCode=30|XSize=0.703mm|YSize=0.803mm|CornerRadius=0.152mm|HoleSize=0mm|Usage=FLASHONLY|Rotation=90.000|XOffset=0mm|YOffset=0mm|HoleType=Round|Shape=RoundedRectangle|*
%AMROUNDEDRECTD30*
21,1,0.703,0.500,0,0,90.0*
21,1,0.400,0.803,0,0,90.0*
1,1,0.303,0.250,0.200*
1,1,0.303,0.250,-0.200*
1,1,0.303,-0.250,-0.200*
1,1,0.303,-0.250,0.200*
%
%ADD30ROUNDEDRECTD30*%
%ADD31R,1.703X1.703*%
%ADD32C,1.703*%
%ADD33R,1.703X1.703*%
%ADD34C,1.473*%
D26*
X39000Y11225D02*
D03*
Y9525D02*
D03*
X39250Y7350D02*
D03*
Y5650D02*
D03*
D27*
X40750Y11225D02*
D03*
Y9525D02*
D03*
Y7350D02*
D03*
Y5650D02*
D03*
D28*
X30450Y7845D02*
D03*
Y9115D02*
D03*
Y10385D02*
D03*
Y11655D02*
D03*
X25050Y7845D02*
D03*
Y9115D02*
D03*
Y10385D02*
D03*
Y11655D02*
D03*
D29*
X14350Y8905D02*
D03*
Y7635D02*
D03*
Y6365D02*
D03*
Y5095D02*
D03*
X21150Y8905D02*
D03*
Y7635D02*
D03*
Y6365D02*
D03*
Y5095D02*
D03*
D30*
X18500Y11250D02*
D03*
X17500D02*
D03*
D31*
X19100Y2000D02*
D03*
X26720D02*
D03*
X3250Y7375D02*
D03*
X19100Y14500D02*
D03*
D32*
X16560Y2000D02*
D03*
X14020D02*
D03*
X11480D02*
D03*
X8940D02*
D03*
X6400D02*
D03*
X3860D02*
D03*
X1320D02*
D03*
X33085Y6375D02*
D03*
X35625Y8915D02*
D03*
X33085D02*
D03*
X35625Y11455D02*
D03*
X33085D02*
D03*
X29260Y2000D02*
D03*
X31800D02*
D03*
X34340D02*
D03*
X36880D02*
D03*
X39420D02*
D03*
X3250Y9915D02*
D03*
X5790Y7375D02*
D03*
Y9915D02*
D03*
X8330Y7375D02*
D03*
Y9915D02*
D03*
X16560Y14500D02*
D03*
X14020D02*
D03*
X11480D02*
D03*
X8940D02*
D03*
X6400D02*
D03*
X3860D02*
D03*
X1320D02*
D03*
D33*
X35625Y6375D02*
D03*
D34*
X12000Y10750D02*
D03*
X11500Y6000D02*
D03*
X11490Y7635D02*
D03*
X14875Y10875D02*
D03*
X41500Y3000D02*
D03*
M02*
