G04 Layer_Color=32768*
%FSLAX43Y43*%
%MOMM*%
G71*
G01*
G75*
%ADD36C,0.050*%
%ADD37C,0.100*%
%ADD38C,0.254*%
%ADD39C,1.000*%
%ADD40C,0.200*%
%ADD41C,0.076*%
D36*
X13000Y4050D02*
Y9950D01*
X22500Y4050D02*
Y9950D01*
X13000D02*
X22500D01*
X13000Y4050D02*
X22500D01*
D37*
X38300Y11875D02*
X39700D01*
X38300Y8875D02*
X39700D01*
Y11875D01*
X38300Y8875D02*
Y11875D01*
X38550Y8000D02*
X39950D01*
X38550Y5000D02*
X39950D01*
Y8000D01*
X38550Y5000D02*
Y8000D01*
X17250Y7000D02*
X18250D01*
X17750Y6500D02*
Y7500D01*
X16950Y10750D02*
X19050D01*
X16950Y11750D02*
X19050D01*
Y10750D02*
Y11750D01*
X16950Y10750D02*
Y11750D01*
D38*
X39000Y10375D02*
D03*
X39250Y6500D02*
D03*
X40750Y10375D02*
D03*
Y6500D02*
D03*
D39*
X27750Y9750D02*
D03*
D40*
X18000Y11250D02*
D03*
D41*
X40075Y8825D02*
X41425D01*
Y11925D01*
X40075D02*
X41425D01*
X40075Y8825D02*
Y11925D01*
Y4950D02*
X41425D01*
Y8050D01*
X40075D02*
X41425D01*
X40075Y4950D02*
Y8050D01*
X24050Y7100D02*
X31450D01*
X24050Y12400D02*
X31450D01*
Y7100D02*
Y12400D01*
X24050Y7100D02*
Y12400D01*
M02*
