G04 Layer_Color=8388736*
%FSLAX44Y44*%
%MOMM*%
G71*
G01*
G75*
G04:AMPARAMS|DCode=23|XSize=0.8032mm|YSize=0.9032mm|CornerRadius=0.1766mm|HoleSize=0mm|Usage=FLASHONLY|Rotation=180.000|XOffset=0mm|YOffset=0mm|HoleType=Round|Shape=RoundedRectangle|*
%AMROUNDEDRECTD23*
21,1,0.8032,0.5500,0,0,180.0*
21,1,0.4500,0.9032,0,0,180.0*
1,1,0.3532,-0.2250,0.2750*
1,1,0.3532,0.2250,0.2750*
1,1,0.3532,0.2250,-0.2750*
1,1,0.3532,-0.2250,-0.2750*
%
%ADD23ROUNDEDRECTD23*%
G04:AMPARAMS|DCode=24|XSize=1.2032mm|YSize=1.1032mm|CornerRadius=0.2141mm|HoleSize=0mm|Usage=FLASHONLY|Rotation=90.000|XOffset=0mm|YOffset=0mm|HoleType=Round|Shape=RoundedRectangle|*
%AMROUNDEDRECTD24*
21,1,1.2032,0.6750,0,0,90.0*
21,1,0.7750,1.1032,0,0,90.0*
1,1,0.4282,0.3375,0.3875*
1,1,0.4282,0.3375,-0.3875*
1,1,0.4282,-0.3375,-0.3875*
1,1,0.4282,-0.3375,0.3875*
%
%ADD24ROUNDEDRECTD24*%
G04:AMPARAMS|DCode=25|XSize=1.0032mm|YSize=1.0032mm|CornerRadius=0.2016mm|HoleSize=0mm|Usage=FLASHONLY|Rotation=0.000|XOffset=0mm|YOffset=0mm|HoleType=Round|Shape=RoundedRectangle|*
%AMROUNDEDRECTD25*
21,1,1.0032,0.6000,0,0,0.0*
21,1,0.6000,1.0032,0,0,0.0*
1,1,0.4032,0.3000,-0.3000*
1,1,0.4032,-0.3000,-0.3000*
1,1,0.4032,-0.3000,0.3000*
1,1,0.4032,0.3000,0.3000*
%
%ADD25ROUNDEDRECTD25*%
%ADD26R,1.7272X1.7272*%
%ADD27R,1.7032X1.7032*%
%ADD28C,1.7032*%
D23*
X40000Y72500D02*
D03*
X15000D02*
D03*
X80000D02*
D03*
X55000D02*
D03*
D24*
X16500Y22500D02*
D03*
X33500D02*
D03*
X16500Y47500D02*
D03*
X33500D02*
D03*
D25*
X73500Y22500D02*
D03*
X56500D02*
D03*
X73500Y47500D02*
D03*
X56500D02*
D03*
D26*
X40000Y107500D02*
D03*
Y132900D02*
D03*
D27*
X135000Y22500D02*
D03*
X110000Y135000D02*
D03*
D28*
X109600Y22500D02*
D03*
X135000Y47900D02*
D03*
X109600D02*
D03*
X135400Y84200D02*
D03*
X110000D02*
D03*
X135400Y109600D02*
D03*
X110000D02*
D03*
X135400Y135000D02*
D03*
M02*
