G04 Layer_Color=8388736*
%FSLAX43Y43*%
%MOMM*%
G71*
G01*
G75*
G04:AMPARAMS|DCode=28|XSize=0.703mm|YSize=0.803mm|CornerRadius=0.152mm|HoleSize=0mm|Usage=FLASHONLY|Rotation=90.000|XOffset=0mm|YOffset=0mm|HoleType=Round|Shape=RoundedRectangle|*
%AMROUNDEDRECTD28*
21,1,0.703,0.500,0,0,90.0*
21,1,0.400,0.803,0,0,90.0*
1,1,0.303,0.250,0.200*
1,1,0.303,0.250,-0.200*
1,1,0.303,-0.250,-0.200*
1,1,0.303,-0.250,0.200*
%
%ADD28ROUNDEDRECTD28*%
%ADD29O,0.803X1.803*%
%ADD30O,2.403X0.803*%
G04:AMPARAMS|DCode=31|XSize=1.003mm|YSize=1.003mm|CornerRadius=0.202mm|HoleSize=0mm|Usage=FLASHONLY|Rotation=90.000|XOffset=0mm|YOffset=0mm|HoleType=Round|Shape=RoundedRectangle|*
%AMROUNDEDRECTD31*
21,1,1.003,0.600,0,0,90.0*
21,1,0.600,1.003,0,0,90.0*
1,1,0.403,0.300,0.300*
1,1,0.403,0.300,-0.300*
1,1,0.403,-0.300,-0.300*
1,1,0.403,-0.300,0.300*
%
%ADD31ROUNDEDRECTD31*%
G04:AMPARAMS|DCode=32|XSize=1.203mm|YSize=1.103mm|CornerRadius=0.214mm|HoleSize=0mm|Usage=FLASHONLY|Rotation=0.000|XOffset=0mm|YOffset=0mm|HoleType=Round|Shape=RoundedRectangle|*
%AMROUNDEDRECTD32*
21,1,1.203,0.675,0,0,0.0*
21,1,0.775,1.103,0,0,0.0*
1,1,0.428,0.388,-0.338*
1,1,0.428,-0.388,-0.338*
1,1,0.428,-0.388,0.338*
1,1,0.428,0.388,0.338*
%
%ADD32ROUNDEDRECTD32*%
%ADD33C,1.727*%
%ADD34C,1.403*%
%ADD35C,1.703*%
%ADD36R,1.703X1.703*%
D28*
X12000Y11375D02*
D03*
X11000D02*
D03*
D29*
X20655Y11200D02*
D03*
X19385D02*
D03*
X18115D02*
D03*
X16845D02*
D03*
X20655Y5800D02*
D03*
X19385D02*
D03*
X18115D02*
D03*
X16845D02*
D03*
X22345D02*
D03*
X23615D02*
D03*
X24885D02*
D03*
X26155D02*
D03*
X22345Y11200D02*
D03*
X23615D02*
D03*
X24885D02*
D03*
X26155D02*
D03*
D30*
X7225Y9655D02*
D03*
Y8385D02*
D03*
Y7115D02*
D03*
Y5845D02*
D03*
X14025Y9655D02*
D03*
Y8385D02*
D03*
Y7115D02*
D03*
Y5845D02*
D03*
D31*
X33625Y11475D02*
D03*
Y9775D02*
D03*
X36250Y11475D02*
D03*
Y9775D02*
D03*
X38750D02*
D03*
Y11475D02*
D03*
X41125Y9775D02*
D03*
Y11475D02*
D03*
D32*
X29000Y11225D02*
D03*
Y9525D02*
D03*
X30625Y11225D02*
D03*
Y9525D02*
D03*
X29000Y7475D02*
D03*
Y5775D02*
D03*
X30625Y7475D02*
D03*
Y5775D02*
D03*
D33*
X28135Y4250D02*
D03*
D34*
X4040Y5795D02*
D03*
X1500D02*
D03*
X4040Y8335D02*
D03*
X1500D02*
D03*
X4040Y10875D02*
D03*
X1500D02*
D03*
D35*
X21640Y2000D02*
D03*
X16560Y14500D02*
D03*
X14020D02*
D03*
X11480D02*
D03*
X8940D02*
D03*
X6400D02*
D03*
X3860D02*
D03*
X1320D02*
D03*
X16560Y2000D02*
D03*
X14020D02*
D03*
X11480D02*
D03*
X8940D02*
D03*
X6400D02*
D03*
X3860D02*
D03*
X1320D02*
D03*
X33625Y7415D02*
D03*
X36165Y4875D02*
D03*
Y7415D02*
D03*
X38705Y4875D02*
D03*
Y7415D02*
D03*
X41245Y4875D02*
D03*
Y7415D02*
D03*
X39420Y2000D02*
D03*
X36880D02*
D03*
X34340D02*
D03*
X31800D02*
D03*
X29260D02*
D03*
D36*
X24180D02*
D03*
X19100Y14500D02*
D03*
Y2000D02*
D03*
X33625Y4875D02*
D03*
X26720Y2000D02*
D03*
M02*
